<svg width="23" height="24" viewBox="0 0 23 24" fill="none" xmlns="http://www.w3.org/2000/svg">
<g clip-path="url(#clip0_6_139)">
<path d="M22.5946 10.4207L20.5505 7.01474L11.5 10.0316L2.44951 7.01474L0.423594 10.389C-0.0316145 11.1471 -0.115948 12.0575 0.190719 12.8864C0.487802 13.6905 1.11359 14.3124 1.91668 14.6047V20.2915L11.5 23.4856L21.0833 20.2915V14.6057C21.8941 14.322 22.5276 13.6991 22.8256 12.8922C23.1284 12.0719 23.045 11.1701 22.5946 10.4197V10.4207ZM2.06714 11.3761L3.30051 9.31953L10.0635 11.5745L8.59434 14.023C8.36147 14.4121 7.89572 14.5817 7.46926 14.4399L2.59997 12.8174C2.31534 12.7216 2.09301 12.506 1.98855 12.2252C1.88409 11.9434 1.91284 11.6349 2.06714 11.378V11.3761ZM3.83334 15.2459L6.86264 16.2559C7.16643 16.3575 7.47789 16.4064 7.78264 16.4064C8.76876 16.4064 9.70409 15.8975 10.2379 15.0082L10.5417 14.5012V21.1482L3.83334 18.9115V15.2459ZM12.4583 21.1482V14.5012L12.7621 15.0082C13.2959 15.8975 14.2313 16.4064 15.2174 16.4064C15.5221 16.4064 15.8326 16.3575 16.1374 16.2559L19.1667 15.2468V18.9124L12.4583 21.1492V21.1482ZM21.0278 12.229C20.9271 12.5022 20.7106 12.712 20.4346 12.805L15.5308 14.4389C15.0995 14.5798 14.6386 14.4121 14.4057 14.0221L12.9366 11.5735L19.6995 9.31857L20.9521 11.4068C21.1016 11.6559 21.1303 11.9549 21.0287 12.2281L21.0278 12.229ZM6.86455 6.46657L4.83193 5.78903L10.0865 0.534485L12.7209 3.16894L13.87 2.0199L17.7713 5.92128L15.7387 6.59882L13.87 4.73007L10.8158 7.78428L8.78314 7.10674L11.3649 4.52499L10.0855 3.24561L6.86359 6.46753L6.86455 6.46657Z" fill="#FFEDD8"/>
</g>
<defs>
<clipPath id="clip0_6_139">
<rect width="23" height="23" fill="white" transform="translate(0 0.5)"/>
</clipPath>
</defs>
</svg>
