<svg width="24" height="21" viewBox="0 0 24 21" fill="none" xmlns="http://www.w3.org/2000/svg">
<path d="M22.5 10.5C22.5 15.2887 17.9934 19.5 12 19.5C6.0066 19.5 1.5 15.2887 1.5 10.5C1.5 5.71132 6.0066 1.5 12 1.5C17.9934 1.5 22.5 5.71132 22.5 10.5Z" stroke="#FCD8AF" stroke-width="3"/>
<g clip-path="url(#clip0_8_70)">
<path d="M17.9993 6.88301C17.8418 6.7176 17.6445 6.58457 17.4217 6.49337C17.1988 6.40216 16.9557 6.35501 16.7096 6.35528H7.65551L7.63199 6.18329C7.58386 5.82579 7.38749 5.49618 7.08011 5.25693C6.77272 5.01769 6.3757 4.88544 5.96431 4.88528H5.83999C5.69147 4.88528 5.54903 4.9369 5.44401 5.02879C5.33899 5.12069 5.27999 5.24532 5.27999 5.37528C5.27999 5.50523 5.33899 5.62987 5.44401 5.72176C5.54903 5.81365 5.69147 5.86528 5.83999 5.86528H5.96431C6.10147 5.86529 6.23386 5.90936 6.33636 5.98911C6.43886 6.06886 6.50434 6.17875 6.52039 6.29795L7.29095 12.0309C7.37095 12.6272 7.69834 13.177 8.21098 13.5759C8.72362 13.9749 9.38583 14.1953 10.0719 14.1953H15.92C16.0685 14.1953 16.211 14.1437 16.316 14.0518C16.421 13.9599 16.48 13.8352 16.48 13.7053C16.48 13.5753 16.421 13.4507 16.316 13.3588C16.211 13.2669 16.0685 13.2153 15.92 13.2153H10.0719C9.7253 13.2144 9.38748 13.1198 9.10476 12.9443C8.82203 12.7689 8.60825 12.5212 8.49271 12.2353H15.1679C15.8244 12.2353 16.46 12.0335 16.9637 11.6651C17.4674 11.2968 17.8072 10.7852 17.9237 10.2199L18.3633 8.08645C18.4072 7.87477 18.3973 7.65724 18.3344 7.44927C18.2715 7.2413 18.1571 7.04798 17.9993 6.88301Z" fill="#FD6084"/>
<path d="M9.19999 16.6453C9.81855 16.6453 10.32 16.2065 10.32 15.6653C10.32 15.124 9.81855 14.6853 9.19999 14.6853C8.58143 14.6853 8.07999 15.124 8.07999 15.6653C8.07999 16.2065 8.58143 16.6453 9.19999 16.6453Z" fill="#FD6084"/>
<path d="M14.8 16.6453C15.4186 16.6453 15.92 16.2065 15.92 15.6653C15.92 15.124 15.4186 14.6853 14.8 14.6853C14.1814 14.6853 13.68 15.124 13.68 15.6653C13.68 16.2065 14.1814 16.6453 14.8 16.6453Z" fill="#FD6084"/>
</g>
<defs>
<clipPath id="clip0_8_70">
<rect width="13.44" height="11.76" fill="white" transform="translate(5.27999 4.88528)"/>
</clipPath>
</defs>
</svg>
