<svg width="20" height="30" viewBox="0 0 20 30" fill="none" xmlns="http://www.w3.org/2000/svg">
<g clip-path="url(#clip0_6_167)">
<path fill-rule="evenodd" clip-rule="evenodd" d="M10.0696 3.78234C10.9192 2.86097 11.8496 2.4792 12.661 2.46667V0H14.0115V2.84331C14.7454 3.32991 15.0918 4.2302 14.6513 5.20171L13.2804 8.22678C13.0462 8.82165 12.9192 9.40969 13.0701 9.9812C13.1727 10.3675 13.4018 10.7459 13.8109 11.114C16.9778 14.0274 19.5021 17.4085 19.938 22.3083C19.938 23.7219 20.2679 25.8467 19.4075 27.0085C18.7254 27.9299 17.7476 28.0296 16.5209 27.4336C15.4291 28.8262 13.9921 29.1521 12.1607 28.2587C10.7619 29.4906 9.32656 29.3966 7.85989 28.1407C6.35505 29.041 4.87984 28.8866 3.44166 27.4336C2.72086 27.6222 2.01659 27.6878 1.35049 27.4581C-0.290535 26.8912 0.0245648 25.9664 0.0245648 24.5379C0.0245648 21.8729 0.541944 19.7795 1.59038 17.2991C2.60519 14.8997 3.59949 13.5858 5.06673 12.0142C6.42229 10.5624 7.6428 10.1698 6.50491 7.93219L5.44508 5.32593C5.01716 4.27464 5.48098 3.31282 6.32086 2.82621V0H7.67072V2.49516C8.46274 2.52023 9.32998 2.89801 10.0696 3.78234Z" fill="#FFEDD8"/>
</g>
<defs>
<clipPath id="clip0_6_167">
<rect width="20" height="29.1345" fill="white"/>
</clipPath>
</defs>
</svg>
