<svg width="65" height="65" viewBox="0 0 65 65" fill="none" xmlns="http://www.w3.org/2000/svg">
<rect width="65" height="65" fill="#FD6084"/>
<path d="M48.8125 31.3125H18.1875C16.9794 31.3125 16 32.2919 16 33.5C16 34.7081 16.9794 35.6875 18.1875 35.6875H48.8125C50.0206 35.6875 51 34.7081 51 33.5C51 32.2919 50.0206 31.3125 48.8125 31.3125Z" fill="#FFEDD8"/>
<path d="M18.1875 25.4792H48.8125C50.0206 25.4792 51 24.4998 51 23.2917C51 22.0836 50.0206 21.1042 48.8125 21.1042H18.1875C16.9794 21.1042 16 22.0836 16 23.2917C16 24.4998 16.9794 25.4792 18.1875 25.4792Z" fill="#FFEDD8"/>
<path d="M48.8125 41.5208H18.1875C16.9794 41.5208 16 42.5002 16 43.7083C16 44.9164 16.9794 45.8958 18.1875 45.8958H48.8125C50.0206 45.8958 51 44.9164 51 43.7083C51 42.5002 50.0206 41.5208 48.8125 41.5208Z" fill="#FFEDD8"/>
</svg>
