<svg width="35" height="35" viewBox="0 0 35 35" fill="none" xmlns="http://www.w3.org/2000/svg">
<path d="M32.8125 15.3125H2.1875C0.979385 15.3125 0 16.2919 0 17.5C0 18.7081 0.979385 19.6875 2.1875 19.6875H32.8125C34.0206 19.6875 35 18.7081 35 17.5C35 16.2919 34.0206 15.3125 32.8125 15.3125Z" fill="#FFEDD8"/>
<path d="M2.1875 9.47919H32.8125C34.0206 9.47919 35 8.4998 35 7.29169C35 6.08357 34.0206 5.10419 32.8125 5.10419H2.1875C0.979385 5.10419 0 6.08357 0 7.29169C0 8.4998 0.979385 9.47919 2.1875 9.47919Z" fill="#FFEDD8"/>
<path d="M32.8125 25.5208H2.1875C0.979385 25.5208 0 26.5002 0 27.7083C0 28.9164 0.979385 29.8958 2.1875 29.8958H32.8125C34.0206 29.8958 35 28.9164 35 27.7083C35 26.5002 34.0206 25.5208 32.8125 25.5208Z" fill="#FFEDD8"/>
</svg>
