<svg width="15" height="15" viewBox="0 0 15 15" fill="none" xmlns="http://www.w3.org/2000/svg">
<g clip-path="url(#clip0_13_505)">
<path d="M14.7257 13.4033L11.8225 10.4988C13.9949 7.59583 13.4025 3.48146 10.4996 1.30914C7.59657 -0.86319 3.48219 -0.270867 1.30987 2.63212C-0.862457 5.5351 -0.270135 9.64947 2.63285 11.8218C4.96477 13.5668 8.1676 13.5668 10.4996 11.8218L13.404 14.7262C13.769 15.0912 14.3608 15.0912 14.7257 14.7262C15.0907 14.3612 15.0907 13.7695 14.7257 13.4045L14.7257 13.4033ZM6.5904 11.2612C4.01037 11.2612 1.91886 9.16971 1.91886 6.58967C1.91886 4.00964 4.01037 1.91813 6.5904 1.91813C9.17044 1.91813 11.2619 4.00964 11.2619 6.58967C11.2592 9.16854 9.1693 11.2585 6.5904 11.2612Z" fill="#FFEDD8"/>
</g>
<defs>
<clipPath id="clip0_13_505">
<rect width="15" height="15" fill="white"/>
</clipPath>
</defs>
</svg>
