<svg width="15" height="15" viewBox="0 0 15 15" fill="none" xmlns="http://www.w3.org/2000/svg">
<g clip-path="url(#clip0_8_3)">
<path d="M14.7258 13.4033L11.8226 10.4988C13.9949 7.59583 13.4026 3.48146 10.4996 1.30914C7.59661 -0.86319 3.48224 -0.270867 1.30991 2.63212C-0.862411 5.5351 -0.270089 9.64947 2.63289 11.8218C4.96481 13.5668 8.16765 13.5668 10.4996 11.8218L13.404 14.7262C13.769 15.0912 14.3608 15.0912 14.7258 14.7262C15.0908 14.3612 15.0908 13.7695 14.7258 13.4045L14.7258 13.4033ZM6.59045 11.2612C4.01042 11.2612 1.91891 9.16971 1.91891 6.58967C1.91891 4.00964 4.01042 1.91813 6.59045 1.91813C9.17048 1.91813 11.262 4.00964 11.262 6.58967C11.2592 9.16854 9.16934 11.2585 6.59045 11.2612Z" fill="#FD6084"/>
</g>
<defs>
<clipPath id="clip0_8_3">
<rect width="15" height="15" fill="white"/>
</clipPath>
</defs>
</svg>
