<svg width="38" height="38" viewBox="0 0 38 38" fill="none" xmlns="http://www.w3.org/2000/svg">
<circle cx="19" cy="19" r="17.5" stroke="#FCD8AF" stroke-width="3"/>
<g clip-path="url(#clip0_6_35)">
<path d="M28.4988 12.455C28.2494 12.1557 27.9372 11.9149 27.5843 11.7499C27.2314 11.5849 26.8464 11.4996 26.4569 11.5H12.1212L12.084 11.1888C12.0078 10.5419 11.6969 9.94546 11.2102 9.51254C10.7235 9.07962 10.0949 8.84033 9.44349 8.84003H9.24665C9.01149 8.84003 8.78597 8.93344 8.61968 9.09973C8.4534 9.26601 8.35999 9.49154 8.35999 9.72669C8.35999 9.96185 8.4534 10.1874 8.61968 10.3537C8.78597 10.5199 9.01149 10.6134 9.24665 10.6134H9.44349C9.66067 10.6134 9.87028 10.6931 10.0326 10.8374C10.1949 10.9817 10.2985 11.1806 10.324 11.3963L11.544 21.7703C11.6707 22.8492 12.189 23.844 13.0007 24.566C13.8124 25.2879 14.8609 25.6867 15.9472 25.6867H25.2067C25.4418 25.6867 25.6673 25.5933 25.8336 25.427C25.9999 25.2607 26.0933 25.0352 26.0933 24.8C26.0933 24.5649 25.9999 24.3393 25.8336 24.1731C25.6673 24.0068 25.4418 23.9134 25.2067 23.9134H15.9472C15.3984 23.9118 14.8635 23.7406 14.4159 23.4231C13.9682 23.1056 13.6297 22.6574 13.4468 22.14H24.0159C25.0553 22.1401 26.0617 21.7749 26.8592 21.1083C27.6568 20.4417 28.1947 19.5161 28.3791 18.4932L29.0752 14.6326C29.1447 14.2496 29.129 13.856 29.0294 13.4796C28.9298 13.1033 28.7487 12.7535 28.4988 12.455Z" fill="#FFEDD8"/>
<path d="M14.5667 30.12C15.546 30.12 16.34 29.3261 16.34 28.3467C16.34 27.3673 15.546 26.5734 14.5667 26.5734C13.5873 26.5734 12.7933 27.3673 12.7933 28.3467C12.7933 29.3261 13.5873 30.12 14.5667 30.12Z" fill="#FFEDD8"/>
<path d="M23.4333 30.12C24.4127 30.12 25.2067 29.3261 25.2067 28.3467C25.2067 27.3673 24.4127 26.5734 23.4333 26.5734C22.4539 26.5734 21.66 27.3673 21.66 28.3467C21.66 29.3261 22.4539 30.12 23.4333 30.12Z" fill="#FFEDD8"/>
</g>
<defs>
<clipPath id="clip0_6_35">
<rect width="21.28" height="21.28" fill="white" transform="translate(8.35999 8.84003)"/>
</clipPath>
</defs>
</svg>
