<svg width="23" height="24" viewBox="0 0 23 24" fill="none" xmlns="http://www.w3.org/2000/svg">
<g clip-path="url(#clip0_6_145)">
<path d="M16.7577 2.85942L16.4701 3.14762V2.85942H15.0532C14.4143 3.84662 13.0656 4.529 11.4997 4.529C9.93441 4.529 8.58568 3.84662 7.94684 2.85942H6.52993V3.14762L6.24174 2.85942L1.1459 7.95812L3.93331 10.7478L6.52993 8.15006V21.14H16.4689V8.15063L19.0661 10.7484L21.8529 7.95812L16.7577 2.85942Z" fill="#FFEDD8"/>
<path d="M16.4689 22.2859H6.52992C5.89739 22.2859 5.38402 21.7726 5.38402 21.14V10.9174L4.74346 11.558C4.5286 11.7734 4.23697 11.8937 3.93273 11.8937C3.62907 11.8937 3.33686 11.7728 3.12201 11.558L0.334597 8.76827C-0.112305 8.3208 -0.112305 7.59601 0.334597 7.14796L5.43157 2.04927C5.68024 1.80003 6.03948 1.67914 6.38554 1.72268C6.43309 1.71695 6.48122 1.71352 6.52992 1.71352H7.94683C8.33529 1.71352 8.69797 1.91061 8.90882 2.23662C9.35973 2.93333 10.3767 3.3831 11.4997 3.3831C12.6227 3.3831 13.6403 2.93333 14.0912 2.23662C14.302 1.91061 14.6641 1.71352 15.0532 1.71352H16.4701C16.5188 1.71352 16.5669 1.71638 16.6144 1.72268C16.6614 1.71695 16.709 1.71352 16.7571 1.71352C17.0608 1.71352 17.353 1.83441 17.5684 2.04927L22.6642 7.14739C23.1111 7.59487 23.1111 8.31965 22.6642 8.7677L19.8774 11.558C19.6625 11.7728 19.3709 11.8937 19.0673 11.8937C18.7636 11.8943 18.4714 11.7734 18.2565 11.5585L17.6154 10.9168V21.14C17.6148 21.7731 17.102 22.2859 16.4689 22.2859ZM7.67583 19.9941H15.323V8.15063C15.323 7.68711 15.602 7.26943 16.03 7.09181C16.4586 6.91363 16.9508 7.01217 17.2791 7.34048L19.0655 9.12694L20.2332 7.95812L16.5669 4.28951C16.3841 4.30612 16.2042 4.27748 16.0318 4.20643C15.912 4.15716 15.8037 4.0884 15.7098 4.00532H15.6112C14.6653 5.0481 13.1492 5.6749 11.4997 5.6749C9.85018 5.6749 8.33472 5.0481 7.38821 4.00532H7.28966C7.19627 4.0884 7.08798 4.15658 6.96823 4.20643C6.79463 4.27805 6.61014 4.30326 6.43195 4.28951L2.76506 7.95869L3.93273 9.12751L5.71862 7.34048C6.04635 7.01217 6.53909 6.9142 6.96766 7.09181C7.39623 7.26943 7.67525 7.68711 7.67525 8.15063V19.9941H7.67583Z" fill="#FFEDD8"/>
</g>
<defs>
<clipPath id="clip0_6_145">
<rect width="23" height="23" fill="white" transform="translate(0 0.5)"/>
</clipPath>
</defs>
</svg>
